<svg id="visual" viewBox="0 0 900 600" width="900" height="600" xmlns="http://www.w3.org/2000/svg" xmlns:xlink="http://www.w3.org/1999/xlink" version="1.1"><rect x="0" y="0" width="900" height="600" fill="#003049"></rect><defs><linearGradient id="grad1_0" x1="33.3%" y1="0%" x2="100%" y2="100%"><stop offset="20%" stop-color="#003049" stop-opacity="1"></stop><stop offset="80%" stop-color="#003049" stop-opacity="1"></stop></linearGradient></defs><defs><linearGradient id="grad2_0" x1="0%" y1="0%" x2="66.7%" y2="100%"><stop offset="20%" stop-color="#003049" stop-opacity="1"></stop><stop offset="80%" stop-color="#003049" stop-opacity="1"></stop></linearGradient></defs><g transform="translate(900, 0)"><path d="M0 324.5C-52.1 308.6 -104.3 292.7 -154.5 267.6C-204.7 242.6 -253 208.4 -281 162.2C-309 116.1 -316.8 58.1 -324.5 0L0 0Z" fill="#e17a47"></path></g><g transform="translate(0, 600)"><path d="M0 -324.5C62.9 -319.6 125.8 -314.6 162.2 -281C198.7 -247.4 208.6 -185.1 231.2 -133.5C253.9 -81.9 289.2 -40.9 324.5 0L0 0Z" fill="#e17a47"></path></g></svg>