<?xml version="1.0" standalone="no"?>
<!DOCTYPE svg PUBLIC "-//W3C//DTD SVG 20010904//EN"
 "http://www.w3.org/TR/2001/REC-SVG-20010904/DTD/svg10.dtd">
<svg version="1.0" xmlns="http://www.w3.org/2000/svg"
 width="900.000000pt" height="900.000000pt" viewBox="0 0 900.000000 900.000000"
 preserveAspectRatio="xMidYMid meet">
<metadata>
Created by potrace 1.10, written by Peter Selinger 2001-2011
</metadata>
<g transform="translate(0.000000,900.000000) scale(0.100000,-0.100000)"
fill="#012f49" stroke="none">
<path d="M4842 8227 c-6 -6 -13 -26 -17 -42 -3 -17 -12 -56 -20 -87 -8 -32
-22 -86 -31 -120 -9 -35 -22 -85 -30 -112 -8 -26 -14 -57 -14 -68 0 -11 -5
-28 -11 -39 -6 -11 -14 -41 -19 -67 -9 -46 -18 -84 -45 -187 -14 -49 -33 -126
-61 -237 -34 -139 -46 -185 -55 -214 -5 -16 -13 -50 -19 -75 -5 -24 -16 -71
-24 -104 -8 -33 -20 -80 -26 -105 -6 -25 -17 -67 -25 -95 -8 -27 -21 -77 -29
-110 -21 -85 -42 -169 -61 -245 -9 -36 -23 -92 -31 -125 -9 -33 -19 -74 -25
-91 -5 -16 -13 -50 -18 -75 -10 -45 -23 -97 -46 -184 -8 -27 -21 -78 -29 -112
-9 -35 -23 -90 -31 -123 -8 -33 -22 -87 -30 -120 -8 -33 -22 -88 -31 -122 -8
-35 -19 -77 -25 -94 -5 -16 -13 -50 -19 -75 -13 -62 -50 -209 -75 -304 -8 -27
-21 -77 -29 -110 -21 -85 -42 -169 -61 -245 -9 -36 -23 -92 -31 -125 -9 -33
-19 -74 -25 -91 -5 -16 -13 -50 -18 -75 -10 -45 -23 -97 -46 -184 -13 -46 -22
-82 -62 -240 -8 -33 -21 -82 -28 -110 -8 -27 -21 -79 -30 -115 -9 -36 -23 -87
-31 -114 -8 -26 -14 -59 -14 -73 0 -13 -5 -33 -11 -44 -6 -11 -15 -44 -20 -72
-6 -29 -12 -64 -15 -78 -7 -31 4 -40 61 -50 39 -7 77 -17 180 -44 28 -8 78
-21 113 -29 159 -40 189 -48 218 -57 50 -15 63 -11 69 19 3 15 10 41 15 58 6
16 14 50 19 75 10 45 23 97 46 184 15 56 47 183 91 358 30 121 46 184 60 231
8 26 14 57 14 68 0 11 5 28 11 39 6 11 14 41 19 67 9 46 18 84 45 187 8 28 21
77 29 110 49 200 75 301 92 359 8 26 14 57 14 68 0 11 5 28 11 39 6 11 14 41
19 67 9 46 18 84 45 187 14 49 33 126 61 238 53 213 74 297 90 351 8 26 14 57
14 68 0 11 5 28 11 39 6 11 14 41 19 67 9 46 18 84 45 187 8 28 21 78 29 113
18 68 38 149 62 245 8 34 19 76 25 93 5 16 13 50 19 75 13 62 50 209 75 304 8
28 21 79 30 115 9 36 23 85 31 110 8 25 14 54 14 64 0 11 6 42 14 70 8 28 22
80 31 116 9 36 23 87 31 114 8 26 14 57 14 68 0 11 5 28 11 39 6 11 14 41 19
67 10 55 26 117 76 299 9 34 14 67 12 75 -5 12 -47 25 -198 63 -255 63 -303
76 -350 91 -55 17 -74 18 -88 1z"/>
<path d="M3620 7209 c-25 -11 -58 -26 -75 -33 -16 -7 -46 -20 -65 -28 -53 -24
-150 -67 -200 -90 -25 -10 -58 -25 -75 -33 -87 -39 -182 -81 -270 -119 -16 -7
-60 -27 -97 -45 -37 -17 -70 -31 -73 -31 -4 0 -38 -15 -170 -75 -45 -20 -144
-64 -195 -87 -25 -10 -58 -25 -75 -33 -73 -32 -124 -55 -180 -80 -33 -14 -73
-32 -90 -40 -74 -33 -197 -88 -270 -119 -16 -7 -50 -22 -75 -34 -43 -19 -130
-58 -195 -86 -16 -7 -60 -27 -97 -45 -37 -17 -70 -31 -73 -31 -5 0 -90 -38
-202 -91 -35 -16 -65 -29 -68 -29 -3 0 -35 -14 -72 -31 -38 -16 -81 -36 -98
-43 -16 -7 -60 -27 -97 -45 -37 -17 -70 -31 -73 -31 -4 0 -38 -15 -170 -75
-45 -20 -144 -64 -195 -87 -25 -10 -58 -25 -75 -33 -16 -7 -57 -25 -90 -40
-33 -15 -78 -35 -101 -46 -22 -10 -45 -19 -51 -19 -5 0 -20 -8 -31 -19 -22
-18 -22 -24 -22 -298 0 -258 1 -281 18 -296 10 -10 22 -17 27 -17 4 0 33 -12
64 -26 31 -14 76 -35 101 -46 25 -11 59 -26 75 -33 17 -8 57 -26 90 -40 96
-43 146 -65 278 -124 37 -17 69 -31 72 -31 3 0 33 -13 68 -29 112 -53 197 -91
202 -91 3 0 36 -14 73 -31 37 -18 81 -38 97 -45 65 -28 152 -67 195 -86 25
-12 59 -27 75 -34 71 -31 197 -86 270 -119 17 -8 57 -26 90 -40 63 -28 130
-58 180 -80 17 -8 57 -26 90 -40 96 -43 146 -65 278 -124 37 -17 69 -31 72
-31 3 0 33 -13 68 -29 112 -53 197 -91 202 -91 3 0 36 -14 73 -31 37 -18 81
-37 97 -45 17 -7 62 -27 100 -44 67 -31 92 -42 167 -75 54 -23 150 -66 193
-85 22 -10 61 -28 86 -39 25 -12 50 -21 56 -21 13 0 30 40 42 100 14 63 30
127 47 180 8 25 14 53 14 64 0 10 7 39 15 65 8 25 21 75 30 111 9 36 21 81 26
100 6 25 5 38 -4 47 -6 6 -167 78 -357 158 -190 81 -361 154 -380 163 -43 19
-95 41 -135 58 -38 15 -89 37 -140 60 -22 9 -55 24 -72 31 -18 7 -48 20 -68
29 -19 8 -50 21 -70 30 -19 8 -50 21 -70 30 -19 8 -50 21 -70 30 -19 8 -50 21
-70 30 -19 8 -50 21 -70 30 -19 8 -51 21 -70 29 -40 17 -96 41 -140 60 -16 7
-208 88 -425 180 -483 205 -496 211 -503 229 -6 14 31 56 49 56 7 0 219 87
399 165 17 7 47 20 68 29 20 9 54 23 75 32 20 9 51 22 67 28 17 7 48 21 70 30
22 10 55 24 73 32 18 7 49 21 70 30 20 9 53 23 72 31 19 8 49 21 65 28 17 7
113 48 215 90 102 42 200 83 218 91 75 32 109 47 137 58 17 7 46 19 65 28 19
8 51 21 70 30 19 8 51 21 70 30 19 8 51 22 70 30 19 9 150 64 290 123 140 58
269 112 285 119 17 7 48 21 70 30 22 10 54 24 70 31 17 7 54 23 83 36 l52 24
-2 369 c-2 235 -7 371 -13 373 -5 1 -30 -6 -55 -18z"/>
<path d="M5406 7108 c-8 -29 -21 -80 -30 -113 -8 -33 -22 -89 -31 -125 -9 -36
-23 -90 -30 -120 -7 -30 -21 -82 -30 -115 -9 -33 -17 -80 -18 -104 -2 -44 -1
-45 48 -69 28 -14 65 -31 82 -39 18 -7 49 -20 68 -28 19 -8 50 -21 68 -29 17
-8 147 -62 287 -121 140 -59 270 -114 287 -121 18 -8 47 -21 65 -28 18 -8 51
-22 73 -32 22 -9 54 -23 70 -30 17 -6 48 -20 70 -30 22 -9 54 -23 70 -30 17
-6 48 -20 70 -30 22 -9 54 -23 70 -29 44 -18 95 -40 135 -57 19 -9 166 -71
325 -138 160 -67 306 -129 325 -138 19 -8 51 -22 70 -30 19 -9 51 -22 70 -30
19 -9 51 -22 70 -30 19 -9 51 -22 70 -30 19 -9 51 -22 70 -30 19 -9 51 -22 70
-30 19 -8 47 -21 62 -29 14 -7 32 -13 40 -13 7 -1 24 -10 37 -21 19 -16 23
-24 15 -37 -12 -19 -8 -17 -151 -78 -21 -9 -54 -23 -73 -31 -19 -8 -51 -22
-70 -30 -19 -8 -51 -22 -70 -30 -19 -8 -51 -22 -70 -30 -19 -8 -51 -22 -70
-30 -19 -8 -51 -22 -70 -30 -19 -8 -51 -22 -70 -30 -19 -8 -51 -22 -70 -30
-19 -8 -51 -22 -70 -30 -19 -8 -51 -22 -70 -30 -19 -8 -51 -22 -70 -30 -19 -8
-50 -21 -68 -29 -18 -7 -48 -20 -67 -28 -20 -9 -51 -22 -70 -30 -20 -9 -51
-22 -70 -30 -20 -9 -51 -22 -70 -30 -20 -9 -51 -22 -70 -30 -20 -9 -50 -22
-68 -29 -17 -7 -50 -22 -72 -31 -22 -10 -56 -25 -75 -33 -19 -8 -51 -22 -70
-30 -19 -8 -48 -21 -65 -27 -45 -19 -114 -49 -208 -90 -17 -8 -198 -85 -402
-171 -203 -87 -376 -162 -382 -167 -16 -13 -19 -733 -3 -743 5 -3 17 -2 27 3
10 5 34 16 53 25 19 8 62 27 95 42 33 15 80 36 105 47 25 10 59 25 75 33 73
32 124 55 180 80 33 14 74 32 90 40 36 16 133 59 195 87 25 11 63 28 85 38 38
17 125 56 190 84 17 7 60 27 97 45 37 17 70 31 73 31 4 0 43 17 180 80 40 18
135 60 190 84 17 7 50 22 75 34 47 21 144 64 195 86 17 7 50 22 75 34 25 11
72 32 105 47 33 14 74 32 90 40 74 33 197 88 270 119 17 7 50 22 75 34 25 11
72 32 105 47 33 14 88 40 122 56 35 16 65 29 68 29 4 0 38 15 170 75 32 14
122 54 195 87 25 11 73 33 107 49 35 16 65 29 68 29 5 0 79 33 200 89 33 16
70 31 82 35 11 4 24 13 27 21 8 21 9 563 1 575 -6 10 -65 38 -240 115 -56 25
-107 48 -180 80 -16 8 -50 23 -75 33 -51 23 -150 67 -195 87 -16 8 -57 26 -90
40 -63 28 -130 58 -180 80 -16 8 -57 26 -90 40 -96 43 -146 65 -278 124 -37
17 -69 31 -72 31 -3 0 -33 13 -68 29 -112 53 -197 91 -202 91 -3 0 -36 14 -73
31 -37 18 -80 38 -97 45 -65 28 -152 67 -195 86 -25 12 -58 27 -75 34 -51 22
-148 65 -195 86 -25 12 -58 27 -75 34 -73 31 -196 86 -270 119 -16 8 -57 26
-90 40 -63 28 -130 58 -180 80 -16 8 -57 26 -90 40 -56 25 -107 48 -180 80
-16 8 -50 23 -75 33 -121 53 -167 75 -192 88 -45 24 -56 18 -72 -38z"/>
<path d="M7122 3178 c-9 -9 -12 -68 -12 -205 0 -215 1 -213 -66 -168 -54 37
-93 41 -150 16 -95 -42 -126 -94 -126 -211 0 -140 71 -220 196 -220 47 0 60 4
89 29 34 30 48 30 60 -2 5 -14 15 -17 39 -15 l33 3 3 370 c1 204 0 380 -3 393
-6 24 -42 31 -63 10z m-99 -422 c18 -7 43 -26 57 -41 22 -24 25 -35 25 -103 0
-61 -4 -82 -20 -104 -24 -32 -75 -58 -114 -58 -41 0 -105 51 -125 99 -21 53
-20 70 3 123 36 83 101 115 174 84z"/>
<path d="M3537 3013 c-3 -5 1 -46 8 -93 16 -97 33 -236 45 -361 4 -48 13 -118
19 -155 6 -38 13 -104 17 -147 4 -59 10 -80 22 -84 9 -4 20 1 26 11 12 19 78
114 197 281 98 139 161 228 179 255 8 12 35 49 59 82 36 48 42 62 30 69 -18
12 -79 29 -102 29 -10 0 -27 5 -38 11 -11 6 -41 14 -67 19 -56 10 -157 36
-293 74 -61 17 -95 20 -102 9z"/>
<path d="M4473 2820 c-24 -11 -43 -25 -43 -30 0 -18 -35 -10 -48 11 -9 14 -21
19 -40 17 l-27 -3 -3 -327 c-2 -318 -2 -327 17 -333 11 -3 29 -1 41 5 19 10
20 20 20 145 0 88 4 135 11 135 5 0 27 -11 47 -25 49 -33 129 -35 181 -3 48
30 55 37 82 89 46 90 23 226 -49 283 -69 54 -128 65 -189 36z m88 -61 c50 -15
75 -43 90 -101 11 -39 11 -57 1 -95 -16 -57 -25 -69 -73 -94 -46 -23 -68 -24
-112 -3 -115 55 -111 247 6 291 41 15 43 15 88 2z"/>
<path d="M4920 2833 c-109 -37 -164 -112 -164 -223 0 -129 81 -220 195 -220
41 0 63 6 91 25 45 30 54 31 68 4 8 -14 19 -19 38 -17 l27 3 3 208 2 207 -30
0 c-19 0 -34 -7 -42 -20 -13 -20 -48 -28 -48 -10 0 12 -83 50 -107 49 -10 0
-25 -3 -33 -6z m91 -74 c50 -15 75 -43 90 -101 11 -38 11 -57 1 -94 -14 -51
-32 -74 -79 -98 -40 -20 -63 -20 -106 0 -117 56 -112 245 7 291 40 15 42 15
87 2z"/>
<path d="M5763 2822 c-87 -36 -133 -109 -133 -214 0 -80 29 -140 88 -185 38
-29 51 -33 104 -33 50 0 67 5 94 25 40 30 61 32 69 4 5 -15 14 -19 33 -17 l27
3 0 205 0 205 -27 3 c-19 2 -28 -2 -33 -17 -7 -22 -39 -28 -51 -10 -9 15 -85
49 -109 48 -11 0 -39 -8 -62 -17z m118 -63 c50 -17 78 -47 94 -101 13 -43 12
-54 -2 -100 -19 -58 -76 -108 -125 -108 -35 0 -86 25 -109 54 -63 77 -32 221
54 253 42 15 48 15 88 2z"/>
<path d="M6268 2820 c-20 -11 -40 -25 -44 -31 -5 -8 -13 -4 -24 11 -13 18 -23
21 -44 16 l-26 -6 0 -193 c0 -105 4 -198 9 -205 4 -8 19 -12 32 -10 24 3 24 5
29 143 4 106 9 148 22 171 20 37 68 57 101 45 47 -18 52 -35 57 -200 l5 -156
35 0 35 0 5 152 c5 141 7 154 29 177 31 33 65 40 101 21 40 -20 50 -63 50
-210 0 -66 4 -126 9 -133 4 -8 19 -12 32 -10 l24 3 3 162 c2 146 0 167 -17
202 -19 37 -75 71 -117 71 -20 0 -87 -35 -103 -54 -14 -17 -33 -12 -77 21 -44
33 -82 37 -126 13z"/>
<path d="M7611 2820 c-99 -36 -151 -109 -151 -211 0 -68 22 -119 67 -159 52
-47 87 -60 158 -60 88 0 105 10 105 60 0 22 -2 40 -4 40 -2 0 -24 -9 -50 -21
-45 -19 -49 -20 -95 -4 -58 19 -85 46 -102 103 -22 77 28 171 102 187 37 8
119 -2 119 -16 0 -5 7 -9 15 -9 11 0 15 11 15 38 0 32 -5 41 -25 50 -49 22
-98 23 -154 2z"/>
<path d="M7971 2820 c-98 -35 -151 -109 -151 -208 0 -128 93 -222 221 -222
101 0 182 58 213 152 20 63 20 73 -1 137 -21 68 -76 123 -144 144 -64 21 -71
21 -138 -3z m135 -76 c53 -25 79 -69 79 -134 -1 -176 -231 -206 -285 -37 -9
29 -9 45 0 75 30 93 122 136 206 96z"/>
<path d="M8446 2815 c-43 -29 -49 -30 -66 -10 -15 18 -54 20 -67 3 -7 -10 -10
-310 -4 -395 1 -8 15 -13 35 -13 43 0 46 9 46 173 0 141 8 165 60 187 41 17
82 -1 99 -43 8 -18 15 -92 18 -174 l6 -143 28 0 c21 0 29 5 29 18 2 257 14
316 68 339 40 16 85 4 102 -28 6 -10 10 -78 10 -151 0 -169 3 -178 46 -178 30
0 34 3 40 35 11 62 -2 276 -19 317 -36 80 -130 108 -198 57 -47 -35 -68 -42
-76 -24 -6 16 -81 55 -106 55 -8 0 -31 -11 -51 -25z"/>
<path d="M5210 2797 c0 -13 4 -27 9 -32 6 -6 28 -44 49 -85 22 -41 49 -91 60
-110 12 -19 28 -50 37 -69 17 -37 15 -40 -79 -211 -20 -36 -38 -72 -42 -80 -3
-8 -9 -23 -14 -32 -8 -13 -3 -18 21 -23 35 -8 53 4 77 52 30 59 167 325 236
457 37 71 65 135 62 142 -6 15 -33 18 -60 8 -8 -3 -25 -27 -36 -52 -12 -26
-26 -54 -31 -62 -5 -8 -12 -22 -15 -30 -21 -51 -47 -100 -52 -100 -14 0 -29
16 -43 42 -8 15 -33 65 -57 112 -44 86 -55 96 -98 96 -18 0 -24 -5 -24 -23z"/>
<path d="M7302 2468 c-7 -7 -12 -21 -12 -33 0 -46 57 -62 84 -24 31 45 -33 96
-72 57z"/>
</g>
</svg>
