<?xml version="1.0" standalone="no"?>
<!DOCTYPE svg PUBLIC "-//W3C//DTD SVG 20010904//EN"
 "http://www.w3.org/TR/2001/REC-SVG-20010904/DTD/svg10.dtd">
<svg version="1.0" xmlns="http://www.w3.org/2000/svg"
 width="300.000000pt" height="210.000000pt" viewBox="0 0 300.000000 210.000000"
 preserveAspectRatio="xMidYMid meet">
<metadata>
Created by potrace 1.10, written by Peter Selinger 2001-2011
</metadata>
<g transform="translate(0.000000,210.000000) scale(0.100000,-0.100000)"
fill="#000000" stroke="none">
<path d="M1619 2068 c-3 -13 -9 -38 -14 -63 -3 -16 -9 -39 -12 -50 -9 -28 -30
-109 -38 -145 -2 -8 -9 -35 -15 -60 -7 -25 -14 -55 -16 -66 -1 -12 -11 -52
-22 -90 -18 -63 -33 -122 -34 -134 0 -3 -5 -16 -10 -30 -9 -24 -12 -36 -21
-93 -2 -13 -7 -29 -11 -36 -7 -11 -15 -46 -20 -87 -2 -11 -6 -26 -10 -32 -7
-12 -11 -29 -21 -87 -3 -16 -10 -44 -16 -61 -5 -17 -12 -40 -14 -50 -2 -10 -9
-39 -16 -64 -6 -25 -12 -53 -14 -63 -2 -9 -7 -22 -10 -27 -4 -6 -8 -23 -10
-38 -3 -15 -7 -38 -10 -52 -3 -14 -8 -36 -11 -49 -3 -14 -8 -29 -11 -34 -3 -6
-7 -20 -9 -31 -2 -12 -5 -30 -8 -41 -3 -11 -14 -55 -25 -97 -10 -42 -21 -81
-24 -85 -9 -14 8 -33 34 -38 50 -10 65 -14 90 -23 15 -6 30 -8 33 -5 3 3 13 0
21 -7 18 -15 33 -5 39 26 2 10 9 39 16 64 7 25 14 54 16 65 2 11 13 54 24 95
22 83 24 92 41 165 6 28 18 70 25 95 8 25 17 61 19 80 3 19 9 46 14 60 9 24
21 68 27 100 1 8 8 33 14 55 13 48 15 57 29 115 7 25 14 54 17 65 3 11 7 27 9
35 2 8 4 15 5 15 1 0 3 9 5 20 2 11 6 29 9 40 8 30 31 124 41 166 2 11 7 29
10 39 3 10 8 27 10 37 2 10 9 36 15 58 6 22 12 49 14 60 3 16 15 61 31 115 3
10 14 56 19 80 5 23 1 27 -37 39 -23 7 -57 15 -75 17 -19 2 -47 11 -63 19 -16
9 -29 14 -30 13z m134 -68 c28 -8 37 -16 37 -33 0 -22 -26 -127 -122 -497 -28
-107 -54 -213 -59 -235 -4 -22 -20 -85 -34 -140 -15 -55 -32 -125 -40 -155 -7
-30 -38 -154 -70 -275 -31 -121 -59 -233 -62 -250 -9 -55 -23 -61 -98 -40 -37
10 -69 24 -72 32 -3 8 -1 31 5 51 33 117 42 149 46 172 2 14 77 313 166 665
90 352 167 660 172 684 l10 43 42 -6 c22 -3 58 -10 79 -16z"/>
<path d="M1180 1703 c-25 -14 -46 -25 -48 -24 -1 1 -32 -13 -70 -30 -37 -17
-71 -32 -77 -33 -12 -2 -57 -23 -172 -77 -44 -22 -84 -39 -87 -39 -3 0 -29
-11 -58 -24 -29 -13 -56 -25 -60 -25 -4 -1 -38 -16 -75 -35 -38 -18 -84 -39
-103 -47 -19 -7 -55 -23 -79 -36 -25 -12 -48 -20 -53 -17 -4 3 -8 0 -8 -6 0
-6 -4 -8 -10 -5 -5 3 -10 1 -10 -4 0 -6 -6 -11 -13 -11 -7 0 -29 -9 -50 -20
-20 -11 -40 -20 -44 -21 -5 0 -28 -10 -53 -22 -50 -24 -47 -22 -78 -32 -22 -7
-23 -11 -20 -109 l3 -101 50 -26 c28 -14 52 -26 55 -27 16 -3 53 -18 110 -44
68 -32 111 -51 120 -52 3 -1 25 -11 50 -23 25 -11 83 -37 130 -58 47 -20 103
-45 125 -55 22 -10 83 -37 135 -60 52 -23 122 -54 155 -69 163 -77 200 -92
212 -88 7 2 9 7 18 52 2 11 9 38 15 60 6 22 12 47 14 55 3 8 7 23 11 32 5 12
1 20 -11 24 -11 3 -27 10 -37 15 -9 5 -45 20 -80 33 -34 13 -89 36 -122 51
-33 16 -64 29 -70 30 -5 2 -37 15 -70 30 -33 16 -66 29 -73 31 -8 1 -30 10
-50 19 -20 9 -57 26 -82 37 -25 11 -57 26 -73 34 -15 8 -27 12 -27 8 0 -3 -7
0 -16 7 -9 7 -23 14 -32 16 -10 1 -39 14 -67 28 -27 13 -56 25 -62 25 -18 0
-16 15 4 31 9 8 17 13 17 11 1 -2 15 2 31 9 17 7 32 13 35 14 3 0 21 8 40 17
19 9 76 33 125 53 50 21 104 43 120 51 17 8 85 36 151 63 67 28 153 64 190 82
38 17 74 32 79 33 6 1 25 9 44 19 19 9 40 17 48 17 10 0 13 28 13 130 0 72 -3
130 -7 130 -5 -1 -28 -12 -53 -27z m25 -119 l0 -89 -55 -27 c-30 -15 -91 -41
-135 -59 -44 -17 -98 -39 -120 -49 -134 -59 -184 -80 -189 -80 -3 0 -39 -15
-78 -33 -40 -19 -111 -49 -158 -67 -97 -38 -150 -73 -150 -99 0 -28 0 -28 185
-106 17 -7 50 -22 75 -33 25 -11 101 -43 170 -72 69 -29 139 -58 155 -66 17
-8 81 -36 144 -62 63 -27 119 -55 124 -64 12 -18 -21 -148 -39 -155 -9 -3
-250 99 -322 137 -9 4 -42 18 -72 30 -30 13 -89 38 -130 57 -41 19 -84 38 -95
43 -39 17 -231 102 -270 120 -22 10 -78 35 -125 55 -47 21 -88 43 -92 49 -4 6
-8 39 -8 72 0 72 2 74 103 119 40 18 151 67 247 109 96 43 198 88 225 101 28
12 84 37 125 55 41 18 98 43 125 55 28 13 95 43 150 68 55 24 120 54 145 65
25 11 50 19 55 18 6 -2 10 -41 10 -92z"/>
<path d="M1802 1683 c0 -21 -9 -59 -17 -72 -3 -5 -7 -22 -9 -38 -4 -26 -8 -45
-18 -81 -1 -8 4 -17 12 -21 8 -5 26 -13 39 -20 13 -7 31 -14 41 -16 10 -2 42
-15 72 -28 88 -41 145 -66 226 -98 87 -35 135 -55 275 -118 38 -17 70 -31 72
-31 2 0 16 -5 32 -12 15 -6 30 -12 33 -13 3 0 20 -9 38 -18 17 -10 32 -15 32
-11 0 4 7 1 15 -6 26 -21 14 -34 -40 -46 -5 -1 -28 -10 -50 -20 -22 -10 -42
-18 -45 -19 -3 -1 -18 -8 -35 -15 -16 -7 -32 -14 -35 -15 -13 -5 -147 -67
-162 -75 -10 -6 -22 -10 -28 -10 -5 0 -33 -11 -62 -24 -57 -25 -90 -39 -98
-40 -3 -1 -25 -11 -50 -22 -94 -44 -125 -58 -135 -60 -5 -1 -28 -10 -50 -20
-22 -10 -45 -19 -52 -20 -42 -8 -45 -17 -45 -145 -1 -68 2 -123 5 -121 4 1 15
5 24 8 10 3 55 23 100 45 45 21 88 39 97 39 8 0 16 5 18 11 2 5 10 11 18 13 8
1 31 9 50 18 19 9 58 26 85 38 28 11 62 28 78 36 15 8 27 13 27 10 0 -3 26 9
58 26 31 18 59 31 62 31 7 -1 43 13 108 43 31 14 71 32 87 39 17 7 71 32 120
55 50 23 95 43 100 44 15 3 84 34 135 61 l45 24 3 99 c3 96 2 100 -20 107 -13
4 -25 8 -28 9 -3 2 -16 7 -30 13 -14 6 -55 25 -91 42 -36 17 -69 31 -72 31 -4
0 -37 15 -74 33 -38 18 -72 34 -76 34 -4 1 -31 13 -60 26 -104 49 -168 77
-174 77 -3 0 -38 15 -77 33 -176 83 -219 102 -225 102 -3 0 -31 12 -61 27 -65
31 -132 61 -142 62 -3 1 -10 4 -14 9 -14 13 -33 7 -32 -10z m293 -138 c42 -19
79 -35 84 -35 4 0 21 -6 37 -14 29 -15 256 -116 415 -186 195 -86 295 -134
312 -148 13 -12 17 -31 17 -84 l0 -69 -126 -59 c-69 -33 -128 -60 -130 -60 -6
0 -81 -33 -149 -65 -27 -13 -78 -35 -111 -49 -34 -14 -106 -46 -160 -72 -55
-25 -103 -47 -109 -48 -5 -1 -23 -9 -40 -18 -16 -9 -57 -27 -90 -41 -33 -14
-102 -43 -154 -66 -72 -31 -97 -38 -103 -29 -14 23 -9 155 6 171 8 8 61 34
118 57 57 24 180 77 273 118 94 40 177 75 185 77 8 2 39 15 67 29 29 14 57 26
61 26 5 0 46 18 90 40 90 43 101 63 58 97 -25 20 -29 22 -236 109 -74 31 -163
69 -198 85 -34 16 -67 29 -72 29 -6 0 -18 5 -28 10 -9 6 -78 36 -152 68 -195
83 -177 66 -156 155 9 42 23 78 29 80 11 3 117 -40 262 -108z"/>
<path d="M2333 344 c-3 -8 -3 -37 0 -65 6 -49 1 -59 -20 -38 -17 17 -62 2 -75
-26 -26 -57 25 -136 70 -108 10 6 26 7 40 2 l22 -8 0 129 c0 110 -2 130 -15
130 -9 0 -18 -7 -22 -16z m-7 -135 c6 -5 10 -19 8 -31 -1 -13 -3 -26 -3 -30
-2 -13 -59 -9 -64 5 -13 38 29 79 59 56z"/>
<path d="M1185 283 c10 -64 13 -85 20 -168 4 -38 11 -74 16 -80 6 -5 9 -4 9 5
1 8 14 31 30 50 17 19 30 38 30 43 0 4 5 13 10 20 42 50 91 117 86 118 -15 3
-24 6 -76 19 -30 8 -59 13 -63 12 -4 -1 -22 5 -39 14 l-31 16 8 -49z m105 -15
c22 -7 40 -17 40 -23 0 -15 -63 -104 -79 -110 -21 -8 -23 -2 -29 75 -5 79 -4
80 68 58z"/>
<path d="M1430 138 c0 -96 2 -108 18 -108 14 0 17 7 14 45 -4 45 4 55 25 34
16 -16 61 -3 68 21 7 23 25 27 25 5 0 -22 47 -42 68 -28 9 5 26 7 37 3 18 -7
20 -2 25 59 l6 66 27 -59 28 -58 -27 -45 -26 -44 29 3 c15 2 27 6 26 10 -2 5
6 24 17 44 18 30 70 151 70 161 0 2 -7 3 -15 3 -9 0 -24 -20 -36 -47 -17 -39
-22 -45 -30 -32 -7 14 -14 37 -18 69 -1 8 -155 5 -168 -3 -7 -5 -13 -15 -13
-23 0 -22 -16 -16 -28 11 -10 23 -16 25 -67 22 l-55 -2 0 -107z m93 73 c11 -1
8 -59 -4 -66 -5 -4 -20 -4 -32 -1 -40 10 -29 78 11 71 9 -2 20 -4 25 -4z m144
-4 c11 -11 10 -57 -2 -66 -5 -5 -20 -5 -32 0 -17 6 -23 16 -23 37 0 16 2 31 5
34 7 7 43 3 52 -5z"/>
<path d="M1880 230 c-41 -41 -14 -130 39 -130 11 0 22 4 25 9 3 4 17 6 31 3
25 -4 25 -3 25 61 l0 64 -37 7 c-56 9 -61 8 -83 -14z m77 -31 c18 -23 5 -59
-21 -59 -28 0 -41 11 -41 35 0 43 37 57 62 24z"/>
<path d="M2020 178 c0 -63 2 -68 21 -68 19 0 21 4 16 36 -7 41 6 74 28 74 8 0
14 -3 14 -7 -1 -5 -1 -32 0 -61 1 -45 4 -53 18 -50 14 3 17 11 15 40 -4 42 12
78 33 78 11 0 15 -13 15 -53 0 -58 4 -68 26 -60 20 8 19 107 -2 127 -18 19
-45 21 -61 5 -7 -7 -17 -8 -25 -3 -7 5 -32 9 -55 9 l-43 0 0 -67z"/>
<path d="M2480 237 c-34 -17 -40 -82 -10 -115 26 -28 73 -27 78 1 3 14 -1 18
-15 13 -34 -11 -57 22 -42 63 8 19 14 22 35 17 21 -6 25 -4 22 11 -4 22 -35
27 -68 10z"/>
<path d="M2576 225 c-35 -53 -6 -125 49 -125 35 0 75 42 75 78 0 62 -91 97
-124 47z m87 -32 c13 -28 -5 -53 -39 -53 -21 0 -24 5 -24 33 0 19 3 36 6 40
13 13 47 1 57 -20z"/>
<path d="M2715 173 c0 -57 3 -72 13 -68 8 3 17 5 20 5 4 0 5 25 4 55 -4 50 -2
55 17 55 24 0 33 -27 29 -80 -2 -26 1 -35 12 -35 11 0 16 15 20 55 4 47 8 55
25 55 18 0 20 -7 20 -58 0 -52 2 -57 20 -55 16 2 21 12 23 51 5 74 -38 123
-75 86 -7 -7 -17 -8 -25 -3 -7 5 -33 9 -58 9 l-45 0 0 -72z"/>
<path d="M2397 143 c-15 -14 -7 -43 12 -43 24 0 33 13 25 34 -6 16 -25 21 -37
9z"/>
</g>
</svg>
