<?xml version="1.0" standalone="no"?>
<!DOCTYPE svg PUBLIC "-//W3C//DTD SVG 20010904//EN"
 "http://www.w3.org/TR/2001/REC-SVG-20010904/DTD/svg10.dtd">
<svg version="1.0" xmlns="http://www.w3.org/2000/svg"
 width="450.000000pt" height="450.000000pt" viewBox="0 0 450.000000 450.000000"
 preserveAspectRatio="xMidYMid meet">
<metadata>
Created by potrace 1.10, written by Peter Selinger 2001-2011
</metadata>
<g transform="translate(0.000000,450.000000) scale(0.100000,-0.100000)"
fill="#e27947" stroke="none">
<path d="M2343 3802 c-64 -253 -539 -2129 -555 -2190 -2 -9 45 -25 155 -53 87
-23 161 -39 163 -36 6 6 60 216 313 1217 105 415 222 879 260 1030 39 151 69
275 68 276 -1 2 -67 19 -147 39 -80 20 -152 38 -160 40 -12 4 -31 -60 -97
-323z m257 258 c19 -5 54 -14 78 -20 48 -12 47 -3 14 -127 -11 -40 -17 -74
-14 -77 3 -4 1 -6 -4 -6 -5 0 -11 -10 -12 -22 -1 -13 -29 -129 -62 -258 -33
-129 -63 -246 -66 -259 -5 -25 -32 -130 -59 -231 -8 -30 -31 -122 -50 -205
-20 -82 -39 -159 -44 -170 -6 -16 -123 -474 -136 -538 -2 -10 -18 -73 -36
-140 -17 -67 -34 -133 -36 -147 -3 -14 -8 -34 -13 -45 -5 -11 -11 -33 -13 -50
-3 -16 -15 -72 -28 -123 l-24 -93 -35 5 c-30 4 -94 20 -210 52 -37 11 -40 21
-20 83 10 31 41 153 70 271 30 118 56 217 59 220 3 3 7 12 7 21 2 29 46 204
56 222 5 11 7 21 4 24 -2 3 2 22 9 42 7 21 21 76 30 122 9 46 20 89 23 94 4 6
8 19 9 29 4 25 28 119 93 366 29 107 54 212 57 233 3 20 9 37 15 37 5 0 6 5 3
10 -3 6 -3 15 1 22 4 7 9 22 10 34 2 23 42 178 51 204 4 8 7 20 7 25 6 44 19
95 25 95 4 0 7 8 7 18 0 23 56 256 63 262 3 3 6 11 7 18 3 42 0 41 67 26 34
-7 78 -18 97 -24z"/>
<path d="M1370 3415 c-261 -117 -673 -300 -915 -407 l-440 -195 -3 -150 -3
-151 818 -362 c976 -433 901 -400 909 -403 4 -2 95 336 90 339 0 0 -206 88
-456 194 -250 107 -547 233 -660 281 -131 55 -206 93 -208 103 -2 9 1 16 6 16
8 0 482 199 1184 497 l157 67 3 193 c2 106 1 192 -2 192 -3 -1 -219 -97 -480
-214z m456 8 l-1 -166 -45 -15 c-25 -8 -46 -19 -48 -23 -2 -5 -9 -9 -16 -9 -7
0 -62 -22 -122 -48 -103 -46 -142 -63 -154 -67 -6 -2 -45 -19 -118 -51 -29
-13 -55 -24 -58 -24 -6 0 -101 -40 -214 -89 -36 -16 -90 -39 -120 -51 -30 -13
-74 -31 -97 -41 -24 -11 -72 -31 -108 -45 -36 -14 -68 -30 -71 -35 -3 -5 -16
-9 -30 -9 -13 0 -24 -4 -24 -9 0 -5 -15 -12 -34 -15 -19 -4 -39 -13 -46 -21
-7 -8 -19 -15 -26 -15 -15 0 -19 -28 -6 -46 11 -15 77 -54 94 -54 8 0 46 -16
85 -35 39 -19 75 -35 80 -35 4 0 25 -9 46 -20 20 -11 45 -22 55 -23 9 -2 53
-20 96 -40 43 -20 81 -37 83 -37 2 0 28 -11 56 -24 45 -20 80 -35 97 -41 26
-9 72 -29 103 -45 22 -11 45 -20 54 -20 8 0 12 -4 9 -9 -4 -5 2 -7 12 -4 11 2
25 -1 33 -9 8 -7 23 -15 34 -16 11 -2 27 -10 35 -17 8 -8 17 -14 20 -14 8 0
42 -12 75 -26 17 -7 59 -25 95 -40 166 -70 158 -63 139 -112 -6 -15 -13 -41
-16 -56 -2 -15 -11 -51 -19 -80 -20 -71 -22 -81 -23 -89 -2 -17 -51 -6 -105
22 -31 17 -57 30 -58 29 -5 -1 -54 20 -140 60 -48 23 -89 41 -92 41 -2 0 -25
10 -52 22 -27 12 -51 22 -54 23 -3 0 -34 14 -70 31 -36 17 -82 37 -102 45 -21
7 -38 17 -38 21 0 4 -5 8 -10 8 -13 0 -215 85 -262 110 -20 11 -53 26 -75 34
-21 7 -74 30 -118 51 -115 53 -155 71 -195 88 -19 9 -83 38 -142 65 -59 28
-120 53 -137 57 -53 12 -59 28 -58 160 l2 120 55 29 c30 15 60 29 65 30 22 4
75 31 75 38 0 5 8 8 18 8 9 0 34 9 55 20 20 11 39 20 42 20 3 -1 36 14 73 31
37 17 114 52 172 76 58 25 121 52 140 61 19 9 37 16 40 17 8 3 139 63 206 96
34 16 64 29 67 29 3 0 35 14 71 30 36 17 94 43 129 59 34 15 73 32 87 36 14 4
45 17 70 30 76 38 201 95 209 95 4 0 43 18 86 39 44 22 81 38 83 36 3 -2 14 2
26 10 11 8 23 15 27 15 3 0 5 -75 5 -167z"/>
<path d="M2672 3423 c-46 -182 -46 -183 -33 -183 5 0 87 -33 183 -74 95 -40
355 -151 578 -246 223 -95 445 -190 495 -211 49 -21 91 -42 93 -47 2 -6 -1190
-523 -1327 -575 l-31 -11 0 -192 0 -191 925 411 925 411 0 146 0 146 -872 388
c-480 213 -877 389 -883 391 -6 2 -29 -71 -53 -163z m121 110 c18 -10 34 -20
37 -23 3 -3 10 -5 15 -6 14 -1 63 -22 227 -98 54 -25 109 -48 123 -52 14 -3
25 -10 25 -14 0 -4 12 -11 28 -15 24 -6 53 -18 187 -81 22 -10 42 -19 45 -19
3 -1 23 -10 45 -20 22 -10 42 -19 45 -20 11 -4 58 -25 115 -51 33 -15 62 -28
65 -29 3 0 26 -11 52 -23 26 -12 50 -22 53 -22 6 0 101 -43 189 -86 16 -8 35
-14 42 -14 7 0 14 -3 16 -8 3 -8 156 -75 216 -95 17 -5 32 -14 32 -19 0 -4 5
-8 10 -8 6 0 29 -9 53 -20 l42 -20 0 -124 c-1 -124 -9 -156 -39 -156 -7 0 -38
-13 -69 -29 -31 -16 -55 -26 -52 -22 2 5 -15 -2 -39 -13 -52 -26 -160 -75
-241 -111 -33 -14 -81 -37 -106 -50 -25 -14 -49 -22 -53 -18 -3 3 -6 2 -6 -4
0 -6 -12 -14 -27 -18 -16 -3 -55 -19 -88 -35 -141 -67 -178 -81 -191 -76 -8 3
-13 2 -10 -3 6 -9 -21 -24 -124 -65 -36 -15 -87 -38 -115 -51 -88 -42 -167
-75 -181 -75 -8 0 -14 -4 -14 -10 0 -5 -4 -10 -9 -10 -5 0 -22 -5 -38 -12 -15
-6 -31 -12 -35 -12 -4 -1 -13 -7 -19 -14 -7 -6 -20 -12 -29 -12 -8 0 -30 -9
-47 -20 -18 -11 -33 -16 -33 -12 0 4 -4 2 -8 -3 -7 -11 -109 -58 -152 -70 -14
-4 -35 -14 -48 -21 l-22 -15 2 167 3 167 80 34 c44 18 89 38 100 44 12 5 27
11 35 13 8 2 39 15 69 29 30 14 58 24 63 21 4 -3 8 -1 8 3 0 5 24 17 53 28 28
10 70 28 92 40 22 12 43 22 48 23 24 3 77 27 77 36 0 5 3 7 6 4 5 -6 60 16
171 68 28 13 55 24 59 24 4 0 39 14 78 31 133 59 156 69 241 104 134 56 150
67 151 104 1 17 -1 29 -4 27 -2 -3 -19 2 -36 11 -17 10 -34 17 -38 18 -3 0
-10 3 -14 8 -4 4 -14 7 -21 7 -8 0 -33 9 -56 21 -23 11 -75 34 -115 50 -40 16
-95 41 -123 54 -27 14 -49 23 -49 20 0 -3 -11 2 -25 11 -14 9 -25 13 -25 9 0
-4 -6 -3 -12 3 -15 12 -172 79 -188 80 -3 0 -27 11 -55 25 -27 14 -122 55
-210 92 -347 146 -360 152 -361 176 -1 21 38 185 53 219 3 8 7 20 8 25 1 6 3
13 3 18 3 12 33 8 65 -10z"/>
<path d="M3560 1490 c0 -110 0 -110 -20 -90 -29 29 -90 27 -118 -3 -69 -74
-29 -197 64 -197 21 0 42 8 54 20 l20 20 0 -20 c0 -13 7 -20 20 -20 19 0 20 7
20 200 0 193 -1 200 -20 200 -19 0 -20 -7 -20 -110z m-26 -121 c57 -45 10
-152 -59 -135 -37 9 -61 67 -44 108 21 51 60 61 103 27z"/>
<path d="M1772 1494 c4 -16 16 -118 29 -228 22 -186 24 -197 39 -175 8 13 66
95 128 182 61 88 112 163 112 166 0 3 -64 21 -143 40 -78 18 -148 36 -156 39
-11 4 -13 -1 -9 -24z m85 -18 c21 -8 56 -17 78 -21 22 -4 44 -10 50 -13 5 -4
19 -8 29 -9 11 -2 22 -5 24 -8 6 -5 -140 -215 -150 -215 -4 0 -8 -6 -8 -12 0
-7 -9 -24 -19 -37 -18 -24 -19 -24 -25 -4 -4 12 -6 25 -4 29 1 5 -1 29 -5 54
-4 25 -10 79 -13 120 -4 41 -8 84 -9 95 -2 20 2 35 10 35 3 0 22 -6 42 -14z"/>
<path d="M2160 1250 c0 -163 1 -170 20 -170 18 0 20 7 20 80 0 80 0 80 20 60
31 -31 85 -27 121 9 25 25 29 37 29 81 0 44 -4 56 -29 81 -36 36 -90 40 -121
9 -20 -20 -20 -20 -20 0 0 13 -7 20 -20 20 -19 0 -20 -7 -20 -170z m133 129
c30 -16 37 -28 37 -71 0 -98 -121 -99 -128 -1 -3 34 1 44 24 62 31 24 37 25
67 10z"/>
<path d="M2423 1405 c-13 -9 -27 -34 -33 -55 -14 -50 2 -113 33 -135 32 -22
86 -19 114 7 l23 21 0 -21 c0 -16 6 -22 21 -22 20 0 21 4 17 105 -3 119 -2
119 58 8 l39 -73 -43 -80 c-43 -79 -43 -80 -20 -80 21 0 35 22 109 162 46 90
86 166 87 170 2 5 -7 8 -20 8 -19 0 -30 -13 -59 -71 l-35 -70 -34 70 -34 71
-43 0 c-37 0 -43 -3 -43 -22 l0 -21 -23 21 c-28 26 -82 29 -114 7z m112 -40
c16 -15 25 -36 25 -55 0 -36 -38 -80 -70 -80 -32 0 -70 44 -70 80 0 36 38 80
70 80 12 0 32 -11 45 -25z"/>
<path d="M2853 1396 c-25 -22 -28 -31 -28 -86 0 -55 3 -64 28 -86 38 -33 86
-32 129 3 18 15 27 20 21 13 -19 -21 -16 -40 7 -40 19 0 20 7 20 110 0 105 -1
110 -21 110 -16 0 -20 -5 -16 -20 5 -20 5 -20 -20 0 -35 27 -85 26 -120 -4z
m107 -16 c51 -27 40 -130 -16 -144 -69 -18 -116 88 -58 133 30 23 46 26 74 11z"/>
<path d="M3070 1310 c0 -103 1 -110 20 -110 18 0 20 7 20 79 0 60 4 84 16 96
41 41 75 -9 72 -105 -1 -60 0 -65 20 -68 21 -3 22 0 22 83 0 81 1 86 25 97 43
19 55 -2 55 -98 0 -77 2 -84 20 -84 18 0 20 7 20 88 0 105 -13 132 -65 132
-18 0 -41 -7 -50 -16 -15 -15 -17 -15 -34 0 -22 20 -65 21 -85 0 -15 -14 -16
-14 -16 0 0 9 -8 16 -20 16 -19 0 -20 -7 -20 -110z"/>
<path d="M3770 1391 c-33 -33 -45 -69 -36 -107 4 -15 20 -39 36 -55 23 -23 37
-29 72 -29 51 0 63 7 65 38 2 26 -1 27 -31 7 -32 -21 -80 -3 -96 36 -27 63 40
131 95 95 32 -21 35 -20 32 7 -3 30 -15 37 -65 37 -35 0 -49 -6 -72 -29z"/>
<path d="M3958 1400 c-39 -30 -53 -73 -39 -120 24 -82 119 -108 183 -51 29 26
33 35 33 81 0 46 -4 55 -33 81 -40 36 -105 40 -144 9z m128 -48 c34 -45 -3
-112 -62 -112 -23 0 -38 8 -53 26 -25 32 -26 52 -5 82 30 44 89 46 120 4z"/>
<path d="M4160 1310 c0 -103 1 -110 20 -110 18 0 20 7 20 79 0 80 12 111 44
111 28 0 38 -30 37 -110 -1 -79 -1 -80 23 -80 24 0 25 3 22 53 -5 81 3 117 30
129 42 19 54 -3 54 -98 0 -77 2 -84 20 -84 18 0 20 7 20 88 0 104 -13 132 -63
132 -18 0 -42 -7 -54 -15 -18 -13 -22 -13 -33 0 -16 19 -64 19 -84 0 -8 -8
-17 -15 -20 -15 -3 0 -3 7 0 15 4 10 0 15 -15 15 -20 0 -21 -5 -21 -110z"/>
<path d="M3657 1244 c-4 -4 -7 -16 -7 -26 0 -14 6 -19 23 -16 14 2 22 10 22
23 0 20 -25 32 -38 19z"/>
</g>
</svg>
