<?xml version="1.0" standalone="no"?>
<!DOCTYPE svg PUBLIC "-//W3C//DTD SVG 20010904//EN"
 "http://www.w3.org/TR/2001/REC-SVG-20010904/DTD/svg10.dtd">
<svg version="1.0" xmlns="http://www.w3.org/2000/svg"
 width="300.000000pt" height="300.000000pt" viewBox="0 0 300.000000 300.000000"
 preserveAspectRatio="xMidYMid meet">
<metadata>
Created by potrace 1.10, written by Peter Selinger 2001-2011
</metadata>
<g transform="translate(0.000000,300.000000) scale(0.100000,-0.100000)"
fill="#e27947" stroke="none">
<path d="M1508 2323 c-59 -236 -155 -615 -213 -842 -57 -228 -103 -416 -102
-416 5 -4 212 -54 213 -52 5 6 424 1680 422 1683 -5 4 -190 54 -203 54 -6 0
-58 -192 -117 -427z m185 388 c13 -5 39 -12 57 -14 18 -3 37 -10 43 -16 8 -8
-26 -153 -168 -705 -2 -11 -12 -51 -21 -90 -9 -39 -31 -127 -49 -196 -18 -69
-54 -210 -80 -315 -25 -104 -53 -212 -61 -239 -8 -26 -14 -57 -14 -67 0 -10
-3 -20 -8 -23 -7 -4 -160 29 -168 37 -4 3 151 629 191 772 9 33 23 89 30 125
8 36 20 83 28 105 8 22 12 46 9 54 -3 9 0 11 8 6 9 -5 11 -4 6 3 -4 6 3 46 14
89 31 112 41 155 46 183 3 14 12 47 20 73 9 26 17 58 18 71 2 12 11 53 21 89
19 71 27 77 78 58z"/>
<path d="M1200 2405 c-19 -11 -915 -409 -1150 -512 l-45 -20 3 -100 3 -100
575 -255 574 -255 9 36 c6 20 19 71 30 114 l19 78 -21 8 c-12 5 -182 77 -377
161 -195 83 -385 164 -423 178 -37 15 -66 31 -64 36 2 5 206 95 455 200 l452
191 0 128 c0 70 -3 127 -7 126 -5 -1 -19 -7 -33 -14z m10 -125 l0 -99 -32 -14
c-18 -8 -87 -38 -153 -67 -66 -29 -129 -56 -140 -60 -21 -8 -111 -45 -180 -75
-22 -9 -103 -44 -180 -76 -183 -77 -202 -88 -208 -110 -6 -24 12 -36 118 -80
44 -18 83 -37 87 -43 4 -6 8 -8 8 -4 0 4 35 -8 78 -26 42 -19 116 -50 165 -70
48 -20 115 -49 150 -65 34 -15 82 -36 107 -46 94 -39 148 -64 153 -72 5 -7
-30 -162 -38 -171 -1 -1 -25 6 -52 17 -52 20 -82 34 -218 96 -44 20 -120 54
-170 75 -49 21 -112 50 -140 63 -27 13 -60 27 -72 31 -12 4 -53 22 -92 41 -40
19 -74 35 -78 35 -3 0 -24 9 -47 19 -23 11 -89 42 -149 70 l-107 50 1 69 c1
39 4 74 8 80 3 5 38 24 76 42 39 17 102 47 142 66 39 19 75 34 78 34 4 0 39
15 79 34 39 19 89 41 111 51 22 9 49 20 60 25 11 4 55 24 97 44 43 20 108 48
145 62 38 15 72 31 78 35 5 5 17 9 26 9 10 0 19 4 21 8 3 8 244 120 261 121 4
1 7 -44 7 -99z"/>
<path d="M1805 2378 c-30 -98 -52 -209 -42 -215 7 -4 208 -91 448 -193 240
-102 437 -189 438 -195 1 -5 -199 -96 -444 -200 l-446 -191 -2 -127 c-1 -70
-2 -127 -1 -127 0 0 277 123 615 273 l614 274 0 97 0 98 -583 259 c-321 143
-585 259 -588 259 -2 0 -6 -6 -9 -12z m43 -30 c7 -7 12 -9 12 -4 0 4 12 1 28
-7 65 -33 138 -67 144 -67 4 0 45 -17 90 -39 84 -39 179 -83 188 -86 3 -1 23
-10 45 -20 22 -10 42 -19 45 -20 3 0 21 -8 40 -17 19 -8 58 -25 85 -36 28 -11
93 -40 145 -64 52 -25 121 -55 153 -67 31 -13 60 -27 63 -32 3 -5 13 -9 23 -9
42 0 54 -23 52 -96 -3 -102 0 -98 -81 -129 -17 -6 -111 -49 -145 -65 -22 -10
-119 -53 -215 -95 -96 -42 -204 -90 -240 -107 -61 -28 -85 -39 -162 -72 -18
-8 -53 -23 -78 -34 -146 -65 -253 -112 -256 -112 -2 0 -4 44 -4 98 0 112 -12
98 119 151 40 17 79 31 86 31 7 0 15 4 17 8 3 8 311 142 326 142 5 0 36 14 70
30 34 17 65 30 68 30 3 0 39 16 80 35 41 19 78 35 83 35 11 0 51 36 51 46 0
15 -99 70 -161 89 -13 4 -46 17 -74 30 -27 12 -79 34 -115 50 -36 15 -88 38
-117 51 -28 13 -55 24 -59 24 -4 0 -26 8 -48 19 -23 10 -90 40 -151 66 -188
81 -178 74 -171 98 4 12 14 52 22 90 17 69 21 76 42 55z"/>
<path d="M2372 996 c3 -72 3 -73 -17 -60 -27 19 -52 17 -75 -6 -24 -24 -26
-77 -4 -108 17 -24 62 -30 82 -10 9 9 12 9 12 0 0 -7 7 -12 15 -12 13 0 15 22
15 135 0 117 -2 135 -16 135 -14 0 -16 -11 -12 -74z m-3 -100 c12 -30 2 -56
-27 -69 -21 -10 -27 -8 -43 12 -24 29 -24 46 0 70 24 24 59 17 70 -13z"/>
<path d="M1183 989 c3 -19 12 -87 18 -151 7 -65 15 -118 18 -117 8 0 163 226
162 235 0 4 -41 17 -91 30 -49 12 -95 26 -101 30 -8 5 -10 -3 -6 -27z m71 -16
c4 -5 11 -8 14 -9 30 -2 72 -17 72 -26 0 -10 -102 -160 -106 -155 -1 1 -4 27
-8 59 -3 31 -8 75 -12 97 -6 36 -4 41 13 41 11 0 23 -3 27 -7z"/>
<path d="M1440 835 c0 -100 2 -115 16 -115 14 0 16 9 12 50 -5 47 3 63 17 40
12 -19 63 -11 79 12 50 70 -25 167 -86 111 -17 -15 -18 -15 -18 0 0 10 -4 17
-10 17 -6 0 -10 -45 -10 -115z m100 75 c11 -11 20 -26 20 -33 0 -22 -30 -57
-50 -57 -20 0 -50 35 -50 57 0 15 36 53 50 53 6 0 19 -9 30 -20z"/>
<path d="M1610 930 c-24 -24 -26 -77 -4 -108 16 -23 67 -31 79 -12 3 6 11 10
16 10 6 0 7 -4 4 -10 -3 -5 1 -10 9 -10 13 0 16 14 16 75 0 43 -4 75 -10 75
-5 0 -10 -7 -10 -17 0 -15 -1 -15 -18 0 -25 23 -58 21 -82 -3z m92 -36 c8 -18
7 -29 -6 -49 -20 -31 -50 -32 -70 -3 -21 29 -20 44 3 67 24 24 59 17 73 -15z"/>
<path d="M1740 938 c0 -7 13 -35 29 -61 l28 -49 -30 -55 c-24 -44 -26 -54 -13
-51 24 4 142 228 121 228 -8 0 -25 -20 -37 -45 -12 -25 -25 -45 -28 -45 -3 0
-16 20 -28 45 -21 43 -42 59 -42 33z"/>
<path d="M1902 927 c-28 -30 -29 -80 -2 -107 23 -23 60 -26 79 -7 11 10 14 10
18 0 12 -34 23 -5 23 62 0 43 -4 75 -10 75 -5 0 -10 -7 -10 -17 0 -15 -1 -15
-18 0 -26 23 -55 21 -80 -6z m78 -17 c24 -24 25 -38 4 -68 -20 -29 -50 -28
-69 2 -23 34 -2 81 38 85 4 1 16 -8 27 -19z"/>
<path d="M2050 948 c-1 -2 -2 -36 -3 -76 -1 -52 1 -72 11 -72 8 0 12 17 12 49
0 32 6 55 16 66 26 26 44 1 44 -61 0 -41 4 -54 15 -54 11 0 15 13 15 54 0 63
18 87 45 60 13 -14 16 -29 13 -66 -4 -36 -2 -48 8 -48 18 0 19 121 2 138 -15
15 -50 16 -65 1 -8 -8 -17 -7 -32 3 -17 10 -25 10 -41 0 -12 -7 -20 -8 -20 -2
0 8 -19 15 -20 8z"/>
<path d="M2517 930 c-55 -43 -21 -130 51 -130 26 0 32 4 32 21 0 18 -3 19 -15
9 -8 -6 -23 -9 -35 -5 -57 18 -38 101 21 93 23 -4 29 -1 27 11 -5 24 -51 25
-81 1z"/>
<path d="M2635 925 c-49 -48 -16 -125 52 -125 37 0 73 38 73 77 0 32 -42 73
-75 73 -14 0 -37 -11 -50 -25z m83 -17 c18 -18 14 -53 -8 -73 -40 -37 -95 19
-63 64 16 23 52 28 71 9z"/>
<path d="M2770 875 c0 -60 3 -75 15 -75 11 0 15 13 15 54 0 37 5 58 16 67 24
20 44 -13 44 -73 0 -26 5 -48 10 -48 6 0 10 22 10 49 0 53 19 84 45 75 11 -5
15 -22 15 -65 0 -46 3 -59 15 -59 22 0 21 112 -1 134 -18 19 -45 21 -61 5 -8
-8 -17 -7 -32 3 -17 10 -25 10 -41 0 -12 -7 -20 -8 -20 -2 0 5 -7 10 -15 10
-12 0 -15 -15 -15 -75z"/>
<path d="M2430 815 c0 -10 7 -15 18 -13 21 4 19 22 -2 26 -10 2 -16 -3 -16
-13z"/>
</g>
</svg>
