<?xml version="1.0" standalone="no"?>
<!DOCTYPE svg PUBLIC "-//W3C//DTD SVG 20010904//EN"
 "http://www.w3.org/TR/2001/REC-SVG-20010904/DTD/svg10.dtd">
<svg version="1.0" xmlns="http://www.w3.org/2000/svg"
 width="300.000000pt" height="300.000000pt" viewBox="0 0 300.000000 300.000000"
 preserveAspectRatio="xMidYMid meet">
<metadata>
Created by potrace 1.10, written by Peter Selinger 2001-2011
</metadata>
<g transform="translate(0.000000,300.000000) scale(0.100000,-0.100000)"
fill="#000000" stroke="none">
<path d="M1508 2323 c-59 -236 -155 -614 -213 -842 -57 -228 -104 -415 -102
-416 1 -1 43 -12 92 -24 50 -12 97 -24 105 -26 12 -4 19 11 32 58 86 329 408
1620 406 1623 -5 4 -190 54 -203 54 -6 0 -58 -192 -117 -427z m244 371 c38
-13 46 -19 44 -37 -3 -29 -95 -395 -106 -422 -4 -11 -21 -78 -38 -150 -41
-174 -91 -377 -99 -395 -3 -8 -7 -22 -8 -30 -1 -8 -10 -44 -19 -80 -10 -36
-19 -72 -21 -80 -4 -21 -80 -321 -99 -394 -18 -69 -20 -71 -43 -61 -24 11 -22
10 -68 20 -22 5 -43 10 -47 11 -5 1 -12 2 -17 3 -12 1 -2 75 11 79 4 2 6 8 2
13 -3 5 -2 14 2 21 4 7 9 21 10 33 1 11 28 119 59 240 32 121 61 236 65 255 5
19 16 62 24 95 9 33 19 71 22 85 3 14 14 61 26 105 11 44 24 96 28 115 4 19
29 116 55 215 26 99 53 205 60 235 7 30 19 76 26 103 13 47 13 47 49 41 19 -3
56 -12 82 -20z"/>
<path d="M1217 2413 c-4 -3 -277 -126 -608 -273 l-602 -266 2 -100 c1 -54 3
-100 5 -101 1 -1 259 -117 574 -256 l572 -254 9 36 c6 20 19 71 30 114 l19 78
-21 8 c-12 5 -195 83 -407 173 -212 91 -402 171 -423 179 -20 7 -36 17 -34 23
2 5 205 95 453 200 l449 190 3 128 c2 116 -2 140 -21 121z m-7 -139 l0 -95
-37 -15 c-44 -17 -136 -57 -208 -90 -28 -13 -69 -30 -90 -37 -44 -16 -120 -49
-178 -78 -22 -10 -43 -19 -48 -19 -5 0 -38 -13 -74 -30 -36 -16 -68 -30 -71
-30 -3 0 -33 -13 -67 -29 -34 -16 -71 -31 -82 -35 -11 -3 -26 -15 -33 -27 -19
-30 -8 -39 123 -94 61 -25 130 -56 155 -67 88 -40 300 -128 310 -128 5 0 10
-4 10 -10 0 -5 9 -10 19 -10 11 0 23 -4 26 -10 3 -5 14 -10 24 -10 9 0 39 -11
67 -24 27 -14 66 -31 87 -40 37 -15 58 -42 41 -55 -5 -3 -10 -15 -12 -26 -7
-51 -25 -115 -32 -115 -6 0 -144 59 -245 105 -231 105 -391 176 -485 217 -63
27 -153 67 -198 89 -46 21 -87 39 -91 39 -4 0 -27 10 -52 23 l-44 22 0 77 c0
42 5 81 10 86 6 4 30 17 55 27 25 10 79 34 120 53 41 19 116 52 165 74 50 22
114 51 143 64 29 13 55 24 59 24 3 0 31 12 62 26 115 55 201 94 206 94 3 0 43
18 90 40 47 22 87 40 89 40 3 0 33 13 68 29 123 57 118 60 118 -55z"/>
<path d="M1809 2388 c0 -2 -13 -51 -28 -111 -19 -72 -25 -110 -18 -114 6 -4
209 -91 451 -194 243 -103 440 -191 439 -195 0 -5 -202 -94 -447 -199 l-447
-191 -2 -127 c-1 -70 -2 -127 -2 -127 0 0 277 123 615 273 l615 274 0 98 -1
98 -583 258 c-562 250 -590 262 -592 257z m86 -57 c91 -43 119 -55 128 -53 4
1 7 -3 7 -10 0 -6 3 -9 6 -6 5 6 43 -10 202 -83 34 -16 63 -28 65 -28 1 0 29
-13 62 -29 33 -16 92 -42 130 -58 39 -16 110 -48 158 -71 48 -24 91 -43 95
-43 4 0 34 -14 67 -30 33 -16 64 -30 68 -30 5 0 24 -7 43 -16 l34 -16 0 -84 0
-83 -51 -25 c-28 -15 -55 -26 -60 -26 -8 0 -48 -18 -194 -85 -27 -13 -84 -37
-125 -55 -41 -17 -102 -44 -135 -60 -33 -16 -154 -70 -270 -121 -115 -50 -238
-104 -271 -120 -34 -16 -65 -29 -68 -29 -9 0 -7 183 2 195 8 13 193 91 205 87
4 -1 7 2 7 6 0 4 17 14 38 21 20 7 62 25 92 38 75 35 139 62 145 63 3 0 26 10
52 22 27 12 50 22 53 22 7 1 80 32 155 66 33 15 74 33 90 39 17 6 36 20 42 30
16 26 -12 49 -112 91 -44 18 -116 49 -160 67 -44 19 -111 48 -150 65 -38 16
-119 50 -179 74 -61 25 -115 48 -120 53 -6 4 -39 18 -73 31 -99 39 -96 33 -71
134 13 47 25 86 28 86 2 0 32 -13 65 -29z"/>
<path d="M2372 996 c3 -72 3 -73 -17 -60 -27 19 -52 17 -75 -6 -24 -24 -26
-77 -4 -108 17 -24 62 -30 82 -10 9 9 12 9 12 0 0 -7 7 -12 15 -12 13 0 15 22
15 135 0 117 -2 135 -16 135 -14 0 -16 -11 -12 -74z m-1 -103 c9 -25 -11 -67
-34 -71 -23 -5 -57 25 -57 50 0 10 9 27 20 38 23 23 59 15 71 -17z"/>
<path d="M1183 994 c3 -16 11 -84 18 -151 12 -115 20 -142 32 -110 3 8 39 62
81 121 48 67 72 108 64 110 -7 3 -47 12 -88 22 -41 9 -84 21 -94 27 -17 8 -18
6 -13 -19z m120 -35 c20 -5 37 -14 37 -19 0 -13 -75 -124 -94 -139 -11 -9 -16
2 -25 64 -6 42 -11 85 -11 96 0 23 -1 23 93 -2z"/>
<path d="M1440 836 c0 -100 2 -116 16 -116 14 0 16 9 12 50 -5 47 3 63 17 40
12 -19 63 -11 79 12 50 71 -25 166 -86 111 -13 -12 -18 -13 -16 -4 2 7 -3 16
-9 18 -10 4 -13 -23 -13 -111z m100 74 c11 -11 20 -26 20 -33 0 -22 -30 -57
-50 -57 -20 0 -50 35 -50 57 0 15 36 53 50 53 6 0 19 -9 30 -20z"/>
<path d="M1610 930 c-24 -24 -26 -77 -4 -108 16 -23 67 -31 79 -12 3 6 11 10
16 10 6 0 7 -4 4 -10 -3 -5 1 -10 9 -10 13 0 16 14 16 75 0 43 -4 75 -10 75
-5 0 -10 -7 -10 -17 0 -15 -1 -15 -18 0 -25 23 -58 21 -82 -3z m92 -36 c8 -18
7 -29 -6 -49 -20 -31 -50 -32 -70 -3 -21 29 -20 44 3 67 24 24 59 17 73 -15z"/>
<path d="M1740 938 c0 -7 13 -35 29 -62 l29 -49 -30 -55 c-25 -44 -28 -53 -14
-51 23 5 142 229 121 229 -9 0 -25 -20 -37 -45 -12 -25 -25 -45 -28 -45 -3 0
-16 20 -28 45 -21 43 -42 59 -42 33z"/>
<path d="M1902 927 c-28 -30 -29 -80 -2 -107 23 -23 60 -26 79 -7 11 10 14 10
18 0 12 -34 23 -5 23 62 0 43 -4 75 -10 75 -5 0 -10 -7 -10 -17 0 -15 -1 -15
-18 0 -26 23 -55 21 -80 -6z m90 -33 c8 -18 7 -29 -6 -49 -29 -44 -78 -25 -78
32 0 52 63 65 84 17z"/>
<path d="M2050 948 c-1 -2 -2 -36 -3 -76 -1 -52 1 -72 11 -72 8 0 12 17 12 49
0 32 6 55 16 66 26 26 44 1 44 -61 0 -41 4 -54 15 -54 11 0 15 13 15 54 0 37
5 58 16 67 26 22 47 -15 41 -73 -3 -36 -1 -48 9 -48 10 0 14 17 14 64 0 77
-15 96 -62 78 -23 -8 -35 -8 -49 1 -15 9 -23 9 -39 -1 -12 -7 -20 -8 -20 -2 0
8 -19 15 -20 8z"/>
<path d="M2517 930 c-55 -43 -21 -130 51 -130 26 0 32 4 32 21 0 18 -3 19 -15
9 -8 -6 -23 -9 -35 -5 -57 18 -38 101 21 93 23 -4 29 -1 27 11 -5 24 -51 25
-81 1z"/>
<path d="M2635 925 c-49 -48 -16 -125 52 -125 37 0 73 38 73 77 0 32 -42 73
-75 73 -14 0 -37 -11 -50 -25z m83 -17 c18 -18 14 -53 -8 -73 -40 -37 -95 19
-63 64 16 23 52 28 71 9z"/>
<path d="M2770 875 c0 -60 3 -75 15 -75 11 0 15 13 15 54 0 37 5 58 16 67 24
20 44 -13 44 -73 0 -26 5 -48 10 -48 6 0 10 22 10 49 0 53 19 84 45 75 11 -5
15 -22 15 -65 0 -46 3 -59 15 -59 22 0 21 112 -1 134 -18 19 -45 21 -61 5 -8
-8 -17 -7 -32 3 -17 10 -25 10 -41 0 -12 -7 -20 -8 -20 -2 0 5 -7 10 -15 10
-12 0 -15 -15 -15 -75z"/>
<path d="M2430 815 c0 -10 7 -15 18 -13 21 4 19 22 -2 26 -10 2 -16 -3 -16
-13z"/>
</g>
</svg>
